<svg xmlns="http://www.w3.org/2000/svg" viewBox="0 0 500 500"><g id="freepik--speech-bubbles-1--inject-6"><path d="M168.52,96.45l8.25,1.47a25.1,25.1,0,1,0-4.64-7.68h0Z" style="fill:#fafafa"></path><path d="M168.52,96.45l.22-.4.67-1.19,2.66-4.66a.05.05,0,0,1,.08,0l0,0h0l-.11.06a24.91,24.91,0,0,1-.7-16c.19-.65.45-1.29.67-1.95a15.21,15.21,0,0,1,.84-2,25,25,0,0,1,5.4-7.4,25.27,25.27,0,0,1,19.46-6.76,25.77,25.77,0,0,1,11,3.73,24.57,24.57,0,0,1,2.47,1.75c.42.29.76.67,1.15,1s.77.68,1.11,1.06a26.52,26.52,0,0,1,2,2.36c.3.42.62.84.92,1.27l.8,1.34a25.13,25.13,0,0,1,1.25,22.57A25.13,25.13,0,0,1,203.64,105a24.74,24.74,0,0,1-8.91,1.36,27.21,27.21,0,0,1-4.12-.44,32.63,32.63,0,0,1-3.73-1A24.9,24.9,0,0,1,176.72,98l0,0-6.16-1.13-1.56-.3-.52-.1.55.09,1.59.26,6.12,1a.05.05,0,0,1,0,0,24.89,24.89,0,0,0,10.12,6.84,32.87,32.87,0,0,0,3.71,1,28.17,28.17,0,0,0,4.09.42A24.87,24.87,0,0,0,217,68.91l-.8-1.33c-.29-.42-.6-.83-.9-1.24a23.32,23.32,0,0,0-2-2.34c-.33-.38-.73-.69-1.09-1s-.72-.71-1.14-1a22.42,22.42,0,0,0-2.44-1.72,25.42,25.42,0,0,0-10.89-3.7,25.07,25.07,0,0,0-19.27,6.66,24.7,24.7,0,0,0-5.36,7.31,15,15,0,0,0-.84,1.94c-.23.65-.49,1.29-.68,1.93a25.66,25.66,0,0,0-.8,3.79,25.2,25.2,0,0,0,1.41,12,.06.06,0,0,1,0,.08.06.06,0,0,1-.07,0h.09l-2.69,4.59L168.77,96Z" style="fill:#263238"></path><path d="M203.12,82a2.55,2.55,0,1,1,2.55,2.54A2.54,2.54,0,0,1,203.12,82Z" style="fill:#263238"></path><path d="M193,82a2.54,2.54,0,1,1,2.54,2.54A2.54,2.54,0,0,1,193,82Z" style="fill:#263238"></path><path d="M182.82,83.3a2.54,2.54,0,1,1,3.47.93A2.54,2.54,0,0,1,182.82,83.3Z" style="fill:#263238"></path></g><g id="freepik--character-1--inject-6"><path d="M116,425l1.53,23.67-6.39,20.47a2.66,2.66,0,0,0,1.92,3.39h0a2.68,2.68,0,0,0,2.38-.58c4.14-3.63,19.31-17.06,19.25-19-.08-2.21.42-27.48.42-27.48Z" style="fill:#263238"></path><path d="M113.09,472.5l21.71-21.3-.05,1.1a4.07,4.07,0,0,1-1.07,2.56c-1.74,1.87-6.66,6.92-18.14,17.06a2.66,2.66,0,0,1-2.45.58Z" style="fill:#455a64"></path><path d="M119.55,461.4c-.15.06-.67-1.33-2.19-2.13a8.29,8.29,0,0,0-3-.71c0-.06.32-.25.93-.31a4.23,4.23,0,0,1,2.32.52,4.17,4.17,0,0,1,1.67,1.68C119.59,461,119.62,461.38,119.55,461.4Z" style="fill:#fff"></path><path d="M117.54,464.8c-.13.11-.92-.78-2.25-1.22a23.18,23.18,0,0,0-2.53-.45,3,3,0,0,1,2.72-.09C117,463.55,117.68,464.74,117.54,464.8Z" style="fill:#fff"></path><path d="M123.2,457.09a25.26,25.26,0,0,0-3.35-2.12c-2-.91-3.82-.9-3.82-1.08a7.28,7.28,0,0,1,7.17,3.2Z" style="fill:#fff"></path><path d="M124,449.19c-.08.15-1.49-.52-3.35-.67s-3.38.23-3.42.07a6.59,6.59,0,0,1,6.77.6Z" style="fill:#fff"></path><path d="M179.15,419.93l-.78,22.94s23,8.49,23.32,12.75l-44.53.09-.26-35.8Z" style="fill:#263238"></path><path d="M164.59,441a1.81,1.81,0,0,0-1.25,2.07,1.74,1.74,0,0,0,2,1.26,1.91,1.91,0,0,0,1.31-2.2,1.81,1.81,0,0,0-2.27-1.08" style="fill:#e0e0e0"></path><path d="M157.16,455.71l.11-3.61,42.66,1.26s2,.86,1.76,2.26Z" style="fill:#455a64"></path><path d="M179.09,442.64c0,.22-1.1.32-2.16,1s-1.64,1.62-1.84,1.53.12-1.34,1.43-2.17S179.14,442.44,179.09,442.64Z" style="fill:#fff"></path><path d="M183.76,444.56c.05.21-.89.59-1.62,1.51S181.19,448,181,448s-.36-1.24.58-2.37S183.76,444.36,183.76,444.56Z" style="fill:#fff"></path><path d="M186.43,450.15c-.2,0-.5-1,0-2.23s1.57-1.67,1.67-1.49-.54.82-1,1.8S186.64,450.13,186.43,450.15Z" style="fill:#fff"></path><path d="M178.69,437.39c-.1.2-1.09-.1-2.32,0s-2.19.47-2.3.29.8-1,2.25-1.05S178.79,437.22,178.69,437.39Z" style="fill:#fff"></path><path d="M181.84,266.24l-3-21.11-81.27-3.7-2.48,25.1,8.75,75.75c1.14,6.39.41,36.19,1.61,44.18.3,2,8.91,56.66,8.91,56.66h22s1.27-54,1.45-58.5,1-34.65,1-42.35c0-9.34,4-57.5,4-57.5l5.64,65.11s-.46,19.73,0,23.91c.75,7.3,6.38,67.63,6.38,67.63l24.69.49s5.14-70.38,5.29-84C185.05,342.25,181.8,267.28,181.84,266.24Z" style="fill:#263238"></path><path d="M161.34,127.42s13.07,3.45,17.77,19.38c3.39,11.49,9.66,27.86,9.66,27.86l-21.18,3.55Z" style="fill:#455a64"></path><path d="M92.78,130.5s9.68-4.65,21.1-8.63h3.64l22,1.39a135.47,135.47,0,0,1,21.83,4.16s6.28,41,7.52,49.07c1.33,8.77,2.66,17.81,2.66,17.81l7.06,47.17c2.24,2.91,1.66,5.92,1.34,8.92-24.64,10.79-52,12.79-83.47.42a4.8,4.8,0,0,1,.16-4.91c.32-9.6,1-30.47,1.48-36.89,0,0-3.47-19.51-6-27-3-8.94-8.08-23.31-8.08-30.68C84,144.55,92.78,130.5,92.78,130.5Z" style="fill:#455a64"></path><path d="M109.48,211.67s8,7,13.1,6.72,18.76-11.57,18.76-11.57,21.38,7.9,26.15,8,7.1,0,7.1,0V203.7L142.9,193.55l-29.07,4.3Z" style="opacity:0.30000000000000004"></path><path d="M163.48,140.89c.14,0,2.06,11.88,4.28,26.57s3.9,26.63,3.76,26.66-2.06-11.88-4.28-26.58S163.34,140.91,163.48,140.89Z" style="fill:#263238"></path><path d="M99.17,190.85c-.2.07-3.81,1.33-4,3.5s2,4.33,2,4.33a3.23,3.23,0,0,0,.42,4.9s-2,3.87,3.49,5c0,0-.58,3.76,2.9,4.56s5.28-1.09,5.53-1.48a1,1,0,0,0,0-1.37l6.49-.8s14.47-1.59,16.07-3.07-.8-14.9-3.54-15.6S103.44,189.28,99.17,190.85Z" style="fill:#ffbf9d"></path><path d="M104.94,205c0,.15-1.09.58-2.15,1.57s-1.58,2.08-1.73,2a4.65,4.65,0,0,1,3.88-3.59Z" style="fill:#ff9a6c"></path><path d="M101.82,201.15c.06.15-1,.55-2.24,1.16s-1.94,1.48-2.06,1.39.48-1.17,1.81-1.85A4.75,4.75,0,0,1,101.82,201.15Z" style="fill:#ff9a6c"></path><path d="M100.35,196.62c0,.15-.85.5-1.79,1.17s-1.56,1.37-1.69,1.29.37-1,1.39-1.72A3,3,0,0,1,100.35,196.62Z" style="fill:#ff9a6c"></path><path d="M187.72,174.83c-.15,0,4.4,15.22,4.4,15.22l-20.07,5-1.71-8.71-1.06-8.43Z" style="fill:#ffbf9d"></path><path d="M129.16,184c.69.35,42.72,2.21,42.72,2.21s15.53-.58,19.58,1.67c0,0,5.22,14.47-1,20.42-5.08,4.9-10.12,4.78-16.59,3.81-7.32-1.1-39.78-12.91-39.78-12.91Z" style="fill:#ffbf9d"></path><path d="M186.34,188.68a63.75,63.75,0,0,0-7.52-2,58.7,58.7,0,0,0-7.76-.52,7.42,7.42,0,0,1,2.28-.32,26.21,26.21,0,0,1,10.94,1.83A7.84,7.84,0,0,1,186.34,188.68Z" style="fill:#ff9a6c"></path><path d="M159.16,155.73a28.89,28.89,0,0,0,2.1-3.51c.57-1.32.71-6.15,2.12-7.51s5.76-5.46,7.42-7,2.18-2.56,3.2-1.52a4,4,0,0,1,.25,4.68c-.94,1.73-4.2,4.67-3.72,6.38s.43,3.32,3.39,3.3,11.14-2.48,15.14-3.43c5.62-1.34,6.91.47,6.91.47s2.8-.66,3.38.6-1.39,2.9-2.26,3.59-.17,3.47-6.37,7.2c-.82.49,1.05,1.9-5.1,4.62-3.51,1.55-5.89,3.11-9.92,3.85-8.53,1.58-12.22,6.49-12.22,6.49-.2,0-12.15-11.57-9.93-13.45Z" style="fill:#ffbf9d"></path><path d="M195.94,147.4s.21.15.22.58a1.91,1.91,0,0,1-.92,1.43,36.39,36.39,0,0,1-4.93,2.32,48.6,48.6,0,0,1-5.15,1.71,8.38,8.38,0,0,1-2.21.43c0-.15,3.26-1.07,7.17-2.63,1.94-.78,3.73-1.53,4.91-2.13A1.82,1.82,0,0,0,196,148C196,147.62,195.89,147.41,195.94,147.4Z" style="fill:#ff9a6c"></path><path d="M196.92,152a8.41,8.41,0,0,1-1.84,1.37,40.88,40.88,0,0,1-4.87,2.63,40,40,0,0,1-5.18,2,9,9,0,0,1-2.24.5c0-.16,3.31-1.13,7.2-2.92S196.84,151.88,196.92,152Z" style="fill:#ff9a6c"></path><path d="M184.25,162.12a15.68,15.68,0,0,1,3.16-1.72,15.86,15.86,0,0,1,3.31-1.44,10.72,10.72,0,0,1-3.08,1.91A10.27,10.27,0,0,1,184.25,162.12Z" style="fill:#ff9a6c"></path><path d="M96.45,186.9s12,25,22.39,26.43,18.33-9.89,22-14.06c4.74-5.36,28-31.15,28-31.15l-12.32-10-31.65,22.5-6-10Z" style="fill:#ffbf9d"></path><path d="M112.72,210.2a5.32,5.32,0,0,1-1-.54,7.49,7.49,0,0,1-1-.81,12.84,12.84,0,0,1-1.28-1.22,55.11,55.11,0,0,1-6.09-8.13c-2.11-3.36-3.85-6.5-5-8.8-.6-1.15-1.07-2.09-1.38-2.75a4.24,4.24,0,0,1-.42-1,5.59,5.59,0,0,1,.6,1c.42.72.92,1.61,1.52,2.66,1.28,2.25,3.07,5.36,5.17,8.7a66.58,66.58,0,0,0,5.92,8.16,14.72,14.72,0,0,0,1.2,1.25,11,11,0,0,0,1,.87A4,4,0,0,1,112.72,210.2Z" style="fill:#ff9a6c"></path><path d="M152.48,186.31a4.63,4.63,0,0,1-.62.94c-.43.59-1.07,1.42-1.89,2.42-1.65,2-4,4.69-6.68,7.6s-5.13,5.51-6.94,7.36c-.9.93-1.64,1.67-2.16,2.17a4.55,4.55,0,0,1-.85.75,5.24,5.24,0,0,1,.7-.89l2.05-2.28,6.82-7.46c2.66-2.91,5.06-5.56,6.78-7.49l2-2.3A4.49,4.49,0,0,1,152.48,186.31Z" style="fill:#ff9a6c"></path><path d="M109,149.59c6.69,12.47,14.21,25.48,14.21,25.48L94.94,190.91s-11.09-25.06-11.18-25.73c0,0-3.93-15.36-.32-24a25.41,25.41,0,0,1,9.34-10.73" style="fill:#455a64"></path><path d="M92.78,130.5l-.14.11-.45.32c-.38.28-1,.71-1.66,1.3a26.57,26.57,0,0,0-5.26,5.89A18.66,18.66,0,0,0,83,143.19a26.7,26.7,0,0,0-.82,6.48A63.62,63.62,0,0,0,84,165.12v0c.3.81.72,1.78,1.1,2.68s.8,1.84,1.2,2.78l2.51,5.73c1.71,3.9,3.49,7.94,5.32,12.08l1.05,2.39-.36-.12,28.26-15.81-.08.3c-4.25-7.68-7.77-14.06-10.25-18.55l-2.83-5.18c-.3-.58-.55-1-.72-1.38a2.2,2.2,0,0,1-.23-.48s.1.15.29.45l.78,1.34c.69,1.22,1.68,2.94,2.93,5.13,2.52,4.47,6.1,10.81,10.4,18.45l.11.19-.19.11L95.07,191.14l-.25.14L94.7,191l-1-2.39-5.31-12.08-2.49-5.75L84.65,168c-.39-1-.77-1.77-1.12-2.8v0a63.41,63.41,0,0,1-1.79-15.58,27.53,27.53,0,0,1,.88-6.57A18.75,18.75,0,0,1,85,138a26.2,26.2,0,0,1,5.41-5.85c.73-.58,1.32-1,1.72-1.25l.46-.28Z" style="fill:#263238"></path><path d="M121.24,195a6.73,6.73,0,0,1-.27-2.23,19.12,19.12,0,0,1,2.87-10.38,6.89,6.89,0,0,1,1.38-1.78,34.26,34.26,0,0,0-3.06,6.9A33.7,33.7,0,0,0,121.24,195Z" style="fill:#ff9a6c"></path><path d="M101.28,107.6c1.2-1.06,2.9-1.35,4.11-2.37a6,6,0,0,0,1.88-4.29,16.4,16.4,0,0,0-.68-4.76l13,16.7a16.9,16.9,0,0,1-3.77,5,6.07,6.07,0,0,1-5.81,1.32c-2-.72-3.28-3.18-2.38-5.1a4.79,4.79,0,0,1-6.49,0A4.67,4.67,0,0,1,101.28,107.6Z" style="fill:#263238"></path><path d="M138.89,58.82c3.16,2.36,3.68,4.7,3.8,6,0,.37,0,.84-.37,1a.82.82,0,0,1-.51,0l-10.56-3.28" style="fill:#263238"></path><path d="M109.72,100.91a87.85,87.85,0,0,1-6.35-13.45,31,31,0,0,1-1.65-14.7c.12-.75,1.38-5.84,2.11-5.92.53,0,0,4.57.39,5,3.33,3.87,5,9,5.59,14.11a68.3,68.3,0,0,1-.09,15" style="fill:#263238"></path><path d="M150.55,101c-.72-5.75-3.16-17.46-5.49-28a21.9,21.9,0,0,0-24.4-17.22l-1.13.16c-12,2.48-16.63,14.27-13.88,26.45l8.25,40.89.77.75c5.29,5.19,11.42,8,18,7.83a9.31,9.31,0,0,0,9-8.7h0c.06-.13-1-6.7-1-6.7S152.06,112.89,150.55,101Z" style="fill:#ffbf9d"></path><path d="M140.69,116.42A27.78,27.78,0,0,1,124.93,114s4.88,8.4,16.32,5.65Z" style="fill:#ff9a6c"></path><path d="M142.92,84.54a1.71,1.71,0,0,1-1.36,1.95,1.6,1.6,0,0,1-1.92-1.28A1.7,1.7,0,0,1,141,83.26,1.6,1.6,0,0,1,142.92,84.54Z" style="fill:#263238"></path><path d="M143.32,78.56c-.18.25-1.57-.52-3.35-.25s-3,1.36-3.19,1.17,0-.52.55-1a4.66,4.66,0,0,1,2.52-1.21,4.4,4.4,0,0,1,2.71.48C143.16,78.07,143.41,78.45,143.32,78.56Z" style="fill:#263238"></path><path d="M127.53,86.76a1.7,1.7,0,0,1-1.36,1.94,1.6,1.6,0,0,1-1.92-1.28,1.71,1.71,0,0,1,1.36-2A1.61,1.61,0,0,1,127.53,86.76Z" style="fill:#263238"></path><path d="M125.87,81.52c-.17.25-1.56-.52-3.35-.25s-3,1.36-3.19,1.17,0-.52.56-1a4.52,4.52,0,0,1,2.52-1.22,4.37,4.37,0,0,1,2.7.48C125.72,81,126,81.41,125.87,81.52Z" style="fill:#263238"></path><path d="M134.22,94.62a11.51,11.51,0,0,1,2.83-1c.45-.11.87-.27.9-.6a2.4,2.4,0,0,0-.5-1.33c-.58-1.07-1.19-2.19-1.84-3.36-2.57-4.78-4.5-8.74-4.31-8.84s2.43,3.69,5,8.47l1.79,3.38a2.82,2.82,0,0,1,.49,1.79,1.18,1.18,0,0,1-.66.79,2.93,2.93,0,0,1-.76.23A11.68,11.68,0,0,1,134.22,94.62Z" style="fill:#263238"></path><path d="M125.66,75.73c-.18.5-2,.26-4.1.52s-3.82.85-4.1.4c-.13-.22.17-.69.86-1.17a7,7,0,0,1,6.25-.7C125.34,75.1,125.74,75.49,125.66,75.73Z" style="fill:#263238"></path><path d="M143.14,75.57c-.31.47-1.83.28-3.57.54s-3.18.79-3.59.41c-.18-.18,0-.63.57-1.13a5.68,5.68,0,0,1,2.8-1.14,5.54,5.54,0,0,1,3,.37C143,75,143.27,75.34,143.14,75.57Z" style="fill:#263238"></path><path d="M107.82,91c-.21-.06-8.32-1.26-6.94,6.82s9,5,9,4.77S107.82,91,107.82,91Z" style="fill:#ffbf9d"></path><path d="M107,100s-.13.12-.34.27a1.39,1.39,0,0,1-1,.21c-.88-.17-1.82-1.4-2.11-2.85a5,5,0,0,1,0-2.08,1.65,1.65,0,0,1,.86-1.27.69.69,0,0,1,.87.24c.15.21.13.38.17.38s.15-.16,0-.48a.89.89,0,0,0-.4-.45,1,1,0,0,0-.8-.07A2,2,0,0,0,103,95.38a4.9,4.9,0,0,0-.1,2.33c.33,1.62,1.41,3,2.61,3.14a1.47,1.47,0,0,0,1.22-.44C107,100.16,107,100,107,100Z" style="fill:#ff9a6c"></path><path d="M137.55,60.55c1.15-1-3.45-4.47-6.85-5.34-5.14-1.31-12.63-1.31-16.78.78-5,2.52-8.89,6-10.65,11.42a32.88,32.88,0,0,0-.58,16.86,10,10,0,0,0,2,4.72c1.42,1.58,3.16,2.17,4.09,4.79a4.56,4.56,0,0,0,1.26,2.3c1.73,1.3,3.23-.5,3.78-2.14,1.17-3.48.68-7.29.19-10.94a24.67,24.67,0,0,0-1.88-7.58c-.63-1.28-1.48-2.43-2-3.74a5,5,0,0,1-.16-4.13,4.35,4.35,0,0,1,.52-.78,8.29,8.29,0,0,1,7.88-3.13c4.74.78,12.76,1.75,14.47-.16,2.45-2.76,2.88-4.33,2.88-4.33Z" style="fill:#263238"></path><path d="M102.28,91.69c-.18-.11-.4-.09-.57-.2C90.76,84.16,96.6,74,96.23,71.33c-.5-3.76-4,1.77-5.45-3C88.87,61.93,95.16,57.88,103,53.52c3.29-1.83,11.8-3.8,19.62-3.59,7,.18,12.32,4.21,15.54,7.48a5.84,5.84,0,0,1,2.21,1.13c1.58,2,1.21,3,1.21,3s-16.25-5.09-26.83,7.59-6.73,21.19-10,21.92Z" style="fill:#455a64"></path><path d="M106.74,58.54a4.39,4.39,0,0,1-.6.4c-.2.13-.44.28-.71.47s-.59.39-.92.65A22.53,22.53,0,0,0,102.29,62a25,25,0,0,0-2.37,2.7,25.77,25.77,0,0,0-1.92,3,24.2,24.2,0,0,0-1.2,2.7c-.16.39-.27.76-.37,1.08s-.19.59-.25.82A3.93,3.93,0,0,1,96,73a6.82,6.82,0,0,1,.14-.72,8.54,8.54,0,0,1,.21-.84c.1-.33.19-.7.34-1.1a22.17,22.17,0,0,1,1.17-2.74,23.93,23.93,0,0,1,1.93-3.1,22.43,22.43,0,0,1,2.4-2.71,19.68,19.68,0,0,1,2.28-1.88,11,11,0,0,1,.94-.63c.28-.19.53-.33.73-.44A3.49,3.49,0,0,1,106.74,58.54Z" style="fill:#263238"></path><path d="M138.61,57.55s-.05,0-.15,0l-.43-.09c-.37-.09-.93-.2-1.64-.34s-1.6-.28-2.63-.38a27.38,27.38,0,0,0-3.51-.13,26.69,26.69,0,0,0-8.92,1.78,28.34,28.34,0,0,0-4.85,2.4,28.68,28.68,0,0,0-4.6,3.56,27.66,27.66,0,0,0-3.77,4.48,29.39,29.39,0,0,0-2.59,4.82,41.36,41.36,0,0,0-2.53,9c-.45,2.62-.64,4.77-.77,6.26-.06.73-.1,1.3-.14,1.71,0,.18,0,.33,0,.44s0,.16,0,.16,0-.06,0-.16,0-.26,0-.44c0-.4,0-1,.09-1.72.1-1.49.27-3.64.7-6.28a40.53,40.53,0,0,1,2.5-9,29.15,29.15,0,0,1,2.59-4.88,27.63,27.63,0,0,1,3.8-4.51,28.73,28.73,0,0,1,4.64-3.59,29.11,29.11,0,0,1,4.89-2.41,26.78,26.78,0,0,1,9-1.74,25.29,25.29,0,0,1,3.52.17c1,.11,1.92.28,2.63.41s1.27.29,1.64.39l.42.12Z" style="fill:#263238"></path><path d="M106.64,86.75a3.55,3.55,0,0,1-2.18.14,3.66,3.66,0,0,1-2-1,12.51,12.51,0,0,0,2,.72A11,11,0,0,0,106.64,86.75Z" style="fill:#263238"></path><path d="M109.51,78.82a2,2,0,0,1-.84,0,6.17,6.17,0,0,1-3.55-2,2.1,2.1,0,0,1-.5-.7,8.33,8.33,0,0,0,4.89,2.68Z" style="fill:#263238"></path><path d="M115.08,68.66a20.6,20.6,0,0,0-1.86-2A19.39,19.39,0,0,0,111,65.22a7,7,0,0,1,4.11,3.44Z" style="fill:#263238"></path><path d="M121.58,63.66a19.05,19.05,0,0,0-1.14-2.21,19.29,19.29,0,0,0-1.56-1.92,5.16,5.16,0,0,1,1.76,1.79A5.34,5.34,0,0,1,121.58,63.66Z" style="fill:#263238"></path><path d="M132.22,60.92a6.75,6.75,0,0,0-.52-2.41,6.85,6.85,0,0,0-1.52-1.93,1.65,1.65,0,0,1,.63.39,4.24,4.24,0,0,1,1.1,1.44,4.38,4.38,0,0,1,.41,1.77A1.56,1.56,0,0,1,132.22,60.92Z" style="fill:#263238"></path><path d="M139,61.3a16.31,16.31,0,0,0-.14-1.94,15.87,15.87,0,0,0-.6-1.84,3.38,3.38,0,0,1,.83,1.8A3.45,3.45,0,0,1,139,61.3Z" style="fill:#263238"></path><path d="M135.46,99.19c-.12,0-5.37-2-5.37-2s-1.52,3,.32,4.43,4.08.52,4.43-.31A13.52,13.52,0,0,0,135.46,99.19Z" style="fill:#ff9a6c"></path><path d="M134.28,101.84s-.17.29-.69.45a4.86,4.86,0,0,1-2.19,0h0a3.29,3.29,0,0,1-1.81-1.27,3.33,3.33,0,0,1-.27-2.56,6.14,6.14,0,0,1,.57-1.48l.1-.19.21.08a40.35,40.35,0,0,1,5.48,2.37A39.67,39.67,0,0,1,130,97.38l.31-.11a5.47,5.47,0,0,0-.5,1.34,2.92,2.92,0,0,0,.18,2.18,3,3,0,0,0,1.52,1.14h0a5.47,5.47,0,0,0,2,.14A7,7,0,0,0,134.28,101.84Z" style="fill:#263238"></path></g></svg>
