<svg xmlns="http://www.w3.org/2000/svg" viewBox="0 0 500 500"><g id="freepik--speech-bubble-2--inject-6"><path d="M300.54,88.42l-9,1.6a27,27,0,0,1-12.49,8,27.28,27.28,0,1,1,17.56-16.37h0Z" style="fill:#fafafa"></path><path d="M300.54,88.42,300.3,88l-.74-1.3-2.89-5.08a.07.07,0,0,0-.09,0l0,0h0l.12.07a27.39,27.39,0,0,0,1.62-13.23,26,26,0,0,0-.86-4.17c-.2-.71-.49-1.4-.73-2.13a16.5,16.5,0,0,0-.92-2.13,27.23,27.23,0,0,0-5.89-8.08,27.56,27.56,0,0,0-21.23-7.37,28,28,0,0,0-12,4.07,25.82,25.82,0,0,0-2.7,1.9c-.45.32-.83.74-1.25,1.1s-.84.74-1.21,1.15a26.79,26.79,0,0,0-2.18,2.58c-.33.46-.68.91-1,1.38l-.88,1.46A27.47,27.47,0,0,0,246,82.84a27.49,27.49,0,0,0,16.18,15A27.14,27.14,0,0,0,272,99.27a29.66,29.66,0,0,0,4.5-.48,35.78,35.78,0,0,0,4.06-1.15,27.06,27.06,0,0,0,11.08-7.57l0,0,6.72-1.23,1.7-.32.57-.12-.6.1-1.73.29L291.53,90s0,0,0,0a27.13,27.13,0,0,1-11,7.46,36,36,0,0,1-4,1.11,29,29,0,0,1-4.46.47,27.22,27.22,0,0,1-25.61-16.3,27.19,27.19,0,0,1,1.37-24.34l.86-1.45c.32-.46.66-.91,1-1.36A29.26,29.26,0,0,1,251.7,53c.37-.41.81-.76,1.2-1.14a15.71,15.71,0,0,1,1.24-1.08,27.42,27.42,0,0,1,2.67-1.89,27.79,27.79,0,0,1,11.88-4,27.17,27.17,0,0,1,26.87,15.24,16.3,16.3,0,0,1,.91,2.12c.25.71.53,1.4.74,2.11a26.48,26.48,0,0,1,.87,4.13,27.36,27.36,0,0,1-1.54,13.15.09.09,0,0,0,0,.09.07.07,0,0,0,.08,0h-.1l2.94,5,.77,1.3C300.44,88.27,300.54,88.42,300.54,88.42Z" style="fill:#263238"></path><path d="M262.79,72.69A2.78,2.78,0,1,0,260,75.46,2.77,2.77,0,0,0,262.79,72.69Z" style="fill:#263238"></path><path d="M273.88,72.69a2.77,2.77,0,1,0-2.77,2.77A2.77,2.77,0,0,0,273.88,72.69Z" style="fill:#263238"></path><path d="M284.94,74.07a2.77,2.77,0,1,0-3.78,1A2.76,2.76,0,0,0,284.94,74.07Z" style="fill:#263238"></path></g><g id="freepik--character-2--inject-6"><path d="M342.68,419.88l1.11,23s-22.7,8.88-22.9,13.16L365,455.5l-.27-36Z" style="fill:#263238"></path><path d="M357.39,440.81a1.81,1.81,0,0,1,1.27,2.06,1.73,1.73,0,0,1-2,1.3,1.92,1.92,0,0,1-1.33-2.2,1.78,1.78,0,0,1,2.23-1.11" style="fill:#e0e0e0"></path><path d="M365,455.5l-.16-3.62-42.2,1.91s-2,.89-1.71,2.29Z" style="fill:#455a64"></path><path d="M343.07,442.7c0,.22,1.09.31,2.15,1s1.65,1.6,1.84,1.51-.13-1.35-1.44-2.16S343,442.5,343.07,442.7Z" style="fill:#fff"></path><path d="M338.47,444.71c-.05.21.89.57,1.63,1.48s1,1.89,1.18,1.88.34-1.25-.6-2.37S338.47,444.5,338.47,444.71Z" style="fill:#fff"></path><path d="M335.92,450.36c.19,0,.48-1.05-.09-2.24s-1.58-1.66-1.67-1.47.54.81,1,1.8S335.7,450.34,335.92,450.36Z" style="fill:#fff"></path><path d="M343.39,437.43c.09.19,1.08-.12,2.29-.05s2.18.44,2.28.25-.81-.95-2.24-1S343.28,437.25,343.39,437.43Z" style="fill:#fff"></path><path d="M394.61,427.59l2.39,27.8-4.36,22.54a2.86,2.86,0,0,0,2.41,3.39h0a2.8,2.8,0,0,0,2.42-.9c3.93-4.35,18.3-20.42,18-22.44-.33-2.35-.6-29.5-.6-29.5Z" style="fill:#263238"></path><path d="M395.05,481.32l20.32-25.22.07,1.18a4.28,4.28,0,0,1-.83,2.85c-1.61,2.19-6.18,8.14-17.06,20.28a2.79,2.79,0,0,1-2.5.91Z" style="fill:#455a64"></path><g style="opacity:0.6000000000000001"><path d="M409.17,447.48a1.75,1.75,0,0,0-.32,2.29,1.61,1.61,0,0,0,2.22.34,1.83,1.83,0,0,0,.33-2.42,1.67,1.67,0,0,0-2.35-.1" style="fill:#fff"></path></g><path d="M400.55,468.74a8.68,8.68,0,0,0-2.54-2,8.49,8.49,0,0,0-3.2-.41c0-.06.31-.3.94-.44a4.46,4.46,0,0,1,2.49.28,4.41,4.41,0,0,1,1.95,1.59C400.55,468.3,400.62,468.71,400.55,468.74Z" style="fill:#fff"></path><path d="M398.83,472.6a20.7,20.7,0,0,0-2.5-1,21.38,21.38,0,0,0-2.7-.18c-.09-.14,1.19-.81,2.83-.42S399,472.51,398.83,472.6Z" style="fill:#fff"></path><path d="M403.88,463.72c-.12.14-1.55-1.17-3.76-1.87s-4.11-.51-4.12-.69,1.95-.67,4.31.11A6.28,6.28,0,0,1,403.88,463.72Z" style="fill:#fff"></path><path d="M403.85,455.21c-.06.17-1.61-.37-3.59-.32s-3.51.64-3.58.47a6.9,6.9,0,0,1,7.17-.15Z" style="fill:#fff"></path><path d="M403.36,447c-.08.17-1.66-.66-3.74-.43a13.17,13.17,0,0,0-3.57,1.17c-.05-.06.22-.43.83-.84a6.15,6.15,0,0,1,2.68-.94,5.88,5.88,0,0,1,2.81.39C403.05,446.66,403.39,447,403.36,447Z" style="fill:#fff"></path><path d="M399.57,445a2.5,2.5,0,0,1-.1-1.05,7.49,7.49,0,0,1,.65-2.81,3.24,3.24,0,0,1,1.27-1.64,1.12,1.12,0,0,1,1.29.17,1.89,1.89,0,0,1,.52,1.23,4,4,0,0,1-3.25,4,4.59,4.59,0,0,1-4.68-2.15,1.65,1.65,0,0,1-.16-1.35,1.1,1.1,0,0,1,1.12-.67,3.86,3.86,0,0,1,1.87.84,8.2,8.2,0,0,1,2,2,2.53,2.53,0,0,1,.48.93,12.86,12.86,0,0,0-2.73-2.61,3.61,3.61,0,0,0-1.64-.69.6.6,0,0,0-.62.36,1.13,1.13,0,0,0,.16.88,4.09,4.09,0,0,0,4.08,1.82,3.5,3.5,0,0,0,2.8-3.32,1.44,1.44,0,0,0-.32-.88.62.62,0,0,0-.71-.1,2.88,2.88,0,0,0-1.1,1.37A11.23,11.23,0,0,0,399.57,445Z" style="fill:#fff"></path><path d="M322,231.47a100.63,100.63,0,0,0-2.13,29.14c.47,6.2,21,177.53,21,177.53h27.79l-7.81-161,2.28.5s15.17,68.68,16.41,79.8c1.11,10,14.73,88.55,14.73,88.55l26.22-.29-9.75-101.4-9.45-92.16-3.55-26.82Z" style="fill:#263238"></path><path d="M369.05,121.45l.6-48.78c.54-12.13-6.06-22.55-18.2-22.76l-1.13.05a21.69,21.69,0,0,0-20.79,20.83c-.42,10.52-.74,22.14-.43,27.76.62,11.63,12.34,13,12.34,13s.07,7.08.06,10.5l-2.73,8,9.58-2.33Z" style="fill:#ae7461"></path><path d="M341.44,111.51a28.15,28.15,0,0,0,15-5.1s-3.29,8.9-14.94,8.33Z" style="fill:#6f4439"></path><path d="M333.24,80.83a1.67,1.67,0,0,0,1.68,1.61,1.6,1.6,0,0,0,1.65-1.57,1.67,1.67,0,0,0-1.67-1.61A1.6,1.6,0,0,0,333.24,80.83Z" style="fill:#263238"></path><path d="M332.21,75.83c.22.21,1.44-.78,3.23-.85s3.14.77,3.32.55-.13-.49-.72-.88a4.59,4.59,0,0,0-2.67-.7,4.38,4.38,0,0,0-2.56.94C332.28,75.34,332.11,75.74,332.21,75.83Z" style="fill:#263238"></path><path d="M349.33,80.83A1.65,1.65,0,0,0,351,82.44a1.59,1.59,0,0,0,1.65-1.57A1.65,1.65,0,0,0,351,79.26,1.59,1.59,0,0,0,349.33,80.83Z" style="fill:#263238"></path><path d="M349.77,75.52c.21.21,1.43-.78,3.22-.85s3.14.78,3.32.55-.13-.49-.72-.88a4.59,4.59,0,0,0-2.67-.7,4.38,4.38,0,0,0-2.56.94C349.83,75,349.66,75.43,349.77,75.52Z" style="fill:#263238"></path><path d="M343.92,89.53a12.12,12.12,0,0,0-2.93-.41c-.46,0-.9-.1-1-.41a2.22,2.22,0,0,1,.24-1.36c.39-1.13.79-2.3,1.21-3.54,1.67-5,2.86-9.15,2.66-9.22s-1.72,4-3.39,9c-.41,1.24-.79,2.42-1.15,3.55a2.6,2.6,0,0,0-.17,1.8,1.17,1.17,0,0,0,.78.64,3.32,3.32,0,0,0,.78.08A11.92,11.92,0,0,0,343.92,89.53Z" style="fill:#263238"></path><path d="M349,70c.26.44,2-.11,4.08-.24s3.89.12,4.09-.36c.08-.23-.29-.62-1.05-1a7.16,7.16,0,0,0-6.23.45C349.15,69.29,348.84,69.73,349,70Z" style="fill:#263238"></path><path d="M331.91,70.57c.39.4,1.83-.06,3.59-.13s3.24.19,3.57-.24c.14-.21-.1-.62-.76-1a5.65,5.65,0,0,0-2.93-.59,5.5,5.5,0,0,0-2.83.89C331.94,70,331.75,70.38,331.91,70.57Z" style="fill:#263238"></path><path d="M369.05,81.33c.2-.09,7.9-2.69,8,5.27s-7.94,6.4-8,6.18S369.05,81.33,369.05,81.33Z" style="fill:#ae7461"></path><path d="M371.48,89.73s.14.1.37.2a1.35,1.35,0,0,0,1,0c.84-.32,1.54-1.66,1.56-3.1a4.36,4.36,0,0,0-.41-2A1.6,1.6,0,0,0,373,83.81a.72.72,0,0,0-.82.39c-.1.22-.05.38-.09.4s-.17-.14-.11-.47a.86.86,0,0,1,.31-.5,1,1,0,0,1,.76-.21,2,2,0,0,1,1.47,1.22,4.81,4.81,0,0,1,.5,2.22c0,1.61-.85,3.12-2,3.46a1.49,1.49,0,0,1-1.27-.2C371.49,89.93,371.45,89.75,371.48,89.73Z" style="fill:#6f4439"></path><path d="M313.44,60.31a2,2,0,0,1,.88-1.12,5.7,5.7,0,0,1,3-.51,16.78,16.78,0,0,0,7.27-1.92,8.21,8.21,0,0,1-2.16-1.48,5,5,0,0,1-1.49-5,1.08,1.08,0,0,1,.61-.76c.52-.17,1,.33,1.34.73A4.31,4.31,0,0,0,326.94,52a7,7,0,0,0,3-.93l.09-.11,1.21-1.24h0c3-3,5.52-5.09,8.16-6.19,3.87-1.61,10.37-2.32,14.44-1.3s7.75,4.27,8.36,8.42c2.25-2,5.67-2,8.45-.89l.07,0c3.1,1.07,4.89,4.31,5.83,7.45.06.17.1.34.15.51a12.12,12.12,0,0,0,4.2,4c.3.17.64.38.68.72a1,1,0,0,1-.52.83,6.11,6.11,0,0,1-2.48,1.07,14.67,14.67,0,0,0,1,2.15c.36.59.78,1.29.48,1.91a1.29,1.29,0,0,1-1.35.61,3.73,3.73,0,0,1-1.44-.64c.35.82.7,1.64,1.06,2.46a7.34,7.34,0,0,1-3.36-.18c-.63,3-1.06,8.4-1.79,10.41-2.12.06-2.63-.17-3.69.2-1.38.47-.83,2.91-2.63,2.24-.92-.35-2.36-3.8-2.68-4.72a45.52,45.52,0,0,1-2.19-19.24,14.57,14.57,0,0,0-4.55-3.21l.14.12c-3.27-1.09-7-2.16-10-.6-2.39,1.22-3.77,3.72-5.54,5.73a16.7,16.7,0,0,1-12.24,6.13c-.42,3.52-.48,9.27-.62,12.56l-2.88-6.54v0c-.23-.39-.42-.77-.61-1.16l-.06-.12h0a20.29,20.29,0,0,0-.94-1.86l0,0a2,2,0,0,1-3-2.71,4.69,4.69,0,0,1,1-1,3.24,3.24,0,0,1-3.09.84,2.55,2.55,0,0,1-1.82-2.5A2.14,2.14,0,0,1,319,63.43a7.28,7.28,0,0,1-4.17-.87C314,62.1,313.18,61.34,313.44,60.31Z" style="fill:#263238"></path><path d="M358.56,52A9.27,9.27,0,0,1,359.75,53a8.41,8.41,0,0,1,1.83,3.85,14.88,14.88,0,0,1,.33,3c0,1.08-.05,2.23-.12,3.44a30.29,30.29,0,0,0-.05,3.83,14.11,14.11,0,0,0,.29,2,4.27,4.27,0,0,0,.84,1.95,1.76,1.76,0,0,0,1.66.53,2.62,2.62,0,0,0,1.47-.85,6.09,6.09,0,0,0,1.09-3l-.25,0a9.66,9.66,0,0,0,1.45,2.43,3.47,3.47,0,0,0,2.28,1.21,2.32,2.32,0,0,0,1.2-.22,1.94,1.94,0,0,0,.81-.82,2,2,0,0,0,.24-1,1.51,1.51,0,0,0-.39-.91l-.12.12a7.61,7.61,0,0,0,2.53,1.85,6.36,6.36,0,0,0,.78.29l.27.07s-.08-.05-.26-.11-.43-.17-.76-.33a8,8,0,0,1-2.44-1.88l-.12.11a1.49,1.49,0,0,1,.1,1.73,1.75,1.75,0,0,1-.73.72,2.1,2.1,0,0,1-1.09.19,3.27,3.27,0,0,1-2.12-1.15,9.67,9.67,0,0,1-1.39-2.37l-.17-.38-.08.41a5.79,5.79,0,0,1-1,2.84,2.38,2.38,0,0,1-1.32.77,1.5,1.5,0,0,1-1.41-.46,4,4,0,0,1-.78-1.82,13.54,13.54,0,0,1-.28-2,29.8,29.8,0,0,1,0-3.79c.06-1.22.12-2.37.1-3.46a14.39,14.39,0,0,0-.37-3A8.28,8.28,0,0,0,359.82,53,4.64,4.64,0,0,0,358.56,52Z" style="fill:#455a64"></path><path d="M322.62,63.73s0,0,.09.08L323,64a5.76,5.76,0,0,0,.5.31,6.81,6.81,0,0,0,.72.37,10.4,10.4,0,0,0,5,.84,13.29,13.29,0,0,0,7-2.68,22.82,22.82,0,0,0,6-7c.84-1.42,1.51-2.88,2.26-4.22A15.41,15.41,0,0,1,347,48a8.07,8.07,0,0,1,3.34-2.08,5.77,5.77,0,0,1,1.77-.22,6.11,6.11,0,0,1,1.63.29,6.66,6.66,0,0,1,2.44,1.44,6.58,6.58,0,0,1,1.34,1.69,7.88,7.88,0,0,1,.62,1.74s0,0,0-.12,0-.22-.06-.36a5.76,5.76,0,0,0-.46-1.31,6.61,6.61,0,0,0-1.32-1.76,6.89,6.89,0,0,0-2.49-1.5,6.42,6.42,0,0,0-1.68-.32,5.82,5.82,0,0,0-1.84.21,8.13,8.13,0,0,0-3.45,2.12,15.58,15.58,0,0,0-2.63,3.63c-.75,1.35-1.43,2.81-2.25,4.21a23,23,0,0,1-5.88,7,13.23,13.23,0,0,1-6.88,2.69,10.5,10.5,0,0,1-4.94-.75A13.74,13.74,0,0,1,322.62,63.73Z" style="fill:#455a64"></path><path d="M321.5,58.62s.14.12.42.29a9,9,0,0,0,1.24.61,11.5,11.5,0,0,0,2,.62,13.67,13.67,0,0,0,2.51.31,14.34,14.34,0,0,0,2.53-.2,12.52,12.52,0,0,0,2-.54,9.07,9.07,0,0,0,1.27-.57,1.81,1.81,0,0,0,.43-.26c0-.05-.66.29-1.76.65a14.16,14.16,0,0,1-2,.47,14.75,14.75,0,0,1-2.47.17,15.43,15.43,0,0,1-2.47-.27,13.62,13.62,0,0,1-1.95-.56C322.15,58.94,321.52,58.58,321.5,58.62Z" style="fill:#455a64"></path><path d="M344.08,93.71c.14,0,6.29-2.4,6.29-2.4s1.78,3.55-.38,5.18-4.77.61-5.18-.37A15.82,15.82,0,0,1,344.08,93.71Z" style="fill:#6f4439"></path><path d="M345.47,96.81a7.55,7.55,0,0,0,.86.27,6.26,6.26,0,0,0,2.4-.14h0a3,3,0,0,0,2-3.92,7.09,7.09,0,0,0-.6-1.58l.32.11c-1.87.7-3.51,1.29-4.69,1.7a8.36,8.36,0,0,1-1.92.55,9.26,9.26,0,0,1,1.81-.86c1.14-.49,2.76-1.15,4.61-1.87l.21-.08.11.19a7.67,7.67,0,0,1,.66,1.71,3.89,3.89,0,0,1-.32,3,3.72,3.72,0,0,1-2.08,1.47h0a5.59,5.59,0,0,1-2.55,0C345.67,97.13,345.44,96.82,345.47,96.81Z" style="fill:#263238"></path><path d="M289.76,191.93l21,13.2c7.57,4,13.06,1.1,14.88-5.3l-.19-23.48s-13.35-7.11-15.38-7.42c-.68-.1-1.69,13.64-1.69,13.64l-20.25-5.67-5.11,10.35Z" style="fill:#ae7461"></path><path d="M287.93,174.14c-.13-.23-5.78-9.21-9-12.58s-3.28-7.05-5.56-7.35-2.69,2.89-1.6,6.17,4,5,3.2,6.15-19.06-1.9-19.06-1.9-2.36-2.41-4.21-.39c0,0-2.94-.7-2.71,1.59s5.57,2.54,5.57,2.54l2.65,4.72,6.14,2.28a8.45,8.45,0,0,0,2.21,4.37,17.11,17.11,0,0,0,3.44,2.82c.25.05,5.72,3.41,8.5,4.09s6.48,1.26,6.48,1.26l5.05-10.1A7,7,0,0,0,287.93,174.14Z" style="fill:#ae7461"></path><path d="M263.44,175.71a10.35,10.35,0,0,1-.69-4.21c.22-1.93,2-10.48,2.87-10.65s2.26-.66,2.65,1.66-.94,7.79-.94,7.92a12.14,12.14,0,0,1,1,3.72" style="fill:#ae7461"></path><path d="M268.34,174.15a10.24,10.24,0,0,1-.28-1.19,12.28,12.28,0,0,0-.42-1.35c-.1-.25-.22-.52-.35-.81l-.1-.23a.53.53,0,0,1,0-.33l.1-.51a47.5,47.5,0,0,0,.73-4.84,8.25,8.25,0,0,0-.11-2.8,1.53,1.53,0,0,0-.74-1,2.33,2.33,0,0,0-1.4,0c-.1-.05-.21.2-.32.42s-.2.47-.29.71c-.17.48-.32,1-.46,1.45-.27,1-.51,1.91-.73,2.81-.42,1.8-.78,3.43-1,4.8a8.73,8.73,0,0,0,.21,3.24,9.87,9.87,0,0,1,.27,1.19,4,4,0,0,1-.47-1.14,8.19,8.19,0,0,1-.37-3.34c.19-1.4.51-3,.91-4.86.2-.91.43-1.86.7-2.84.14-.49.29-1,.46-1.48.09-.26.19-.51.3-.76a3.15,3.15,0,0,1,.22-.39,1,1,0,0,1,.18-.2.54.54,0,0,1,.2-.1l.09,0a2.73,2.73,0,0,1,1.72,0,2,2,0,0,1,1,1.36,8.44,8.44,0,0,1,.1,3,42.33,42.33,0,0,1-.85,4.88l-.12.5c0,.11,0,.1,0,.14l.09.22c.12.29.22.58.31.85a8.37,8.37,0,0,1,.35,1.4A4,4,0,0,1,268.34,174.15Z" style="fill:#6f4439"></path><path d="M283.05,177.84a21.2,21.2,0,0,0-2.8-.71,7.73,7.73,0,0,0-3.18.29,8.11,8.11,0,0,0-3.43,2.13l-.43.45v-.62c0-1.63,0-3.4.08-5.25h0v0c0-.18,0-.38,0-.57a8.52,8.52,0,0,0-.28-3.14,1.7,1.7,0,0,0-2.11-1.14,1.2,1.2,0,0,0-.49.32,1.22,1.22,0,0,0-.21.55c-.1.43-.17.88-.24,1.3l-.37,2.37c-.2,1.38-.37,2.53-.5,3.45a4.94,4.94,0,0,1-.27,1.25,8.19,8.19,0,0,1,.06-1.28c.07-.82.18-2,.35-3.46q.12-1.11.3-2.4c.06-.43.13-.87.22-1.33,0-.12.06-.24.09-.36a1.13,1.13,0,0,1,.21-.39,1.64,1.64,0,0,1,.69-.47,2,2,0,0,1,1.64.12,2.38,2.38,0,0,1,1.11,1.29,8.78,8.78,0,0,1,.32,3.35c0,.2,0,.41-.05.6v0c0,1.85-.08,3.62-.12,5.25l-.42-.16A8.29,8.29,0,0,1,277,177a7.61,7.61,0,0,1,3.33-.19,6,6,0,0,1,1.22.3,4.31,4.31,0,0,1,.86.33A3.48,3.48,0,0,1,283.05,177.84Z" style="fill:#6f4439"></path><path d="M262.72,169.9a22.59,22.59,0,0,1-3.63-1.25l-.06,0,0-.07a14.88,14.88,0,0,0-1.53-2,19.88,19.88,0,0,0-2.06-2,3.63,3.63,0,0,0-1.89-.85,1.91,1.91,0,0,0-1.59.68v-.27c.83,1.24,1.52,2.29,2,3a5.36,5.36,0,0,1,.68,1.22,5.1,5.1,0,0,1-.9-1.06c-.54-.71-1.28-1.72-2.15-2.94l-.1-.13.1-.13a2.41,2.41,0,0,1,2-.92,4,4,0,0,1,2.18.95,17.55,17.55,0,0,1,2.11,2.12,13.84,13.84,0,0,1,1.54,2.1l-.11-.1A23.29,23.29,0,0,1,262.72,169.9Z" style="fill:#6f4439"></path><path d="M319.18,130c-3.47,2.57-6.29,6.16-7.17,12.72l-5.38,32,15.31,4.34,5.29-36.39Z" style="fill:#4193F0"></path><path d="M336.32,120.45,319.18,130c-1.44,9.56.73,63.53.73,63.53l-.8,51.74c24,11.89,51.71,7.54,81.08-2a11.81,11.81,0,0,0-.62-5.92L394.86,192s1.22-35,1.22-35.71S398.71,123,398.71,123l-28.2-8.43s-12,9.93-21.5,10.4c-8.22.41-7.79-7-7.79-7Z" style="fill:#4193F0"></path><path d="M318.69,142.76a8.58,8.58,0,0,1,.1,1.57c0,1.1,0,2.53.09,4.26,0,3.7.1,8.63.17,14.08s.19,10.47.32,14.07c.06,1.73.11,3.16.15,4.26a7.9,7.9,0,0,1,0,1.57,10.72,10.72,0,0,1-.2-1.55c-.1-1-.21-2.46-.32-4.26-.22-3.6-.4-8.58-.47-14.08s-.06-10.48,0-14.09c0-1.73.06-3.16.08-4.26A8.58,8.58,0,0,1,318.69,142.76Z" style="fill:#263238"></path><path d="M366.26,202.43c-.36.91-9.17,5.61-9.17,5.61h-4s-2.57-3.57-2.42-4.1,1.67-6.36-.46-6.06-3.56,4.08-3.86,5.07a4.86,4.86,0,0,0,.38,2.58s-3.64-4.47-6.14-3.33-1.29,2.73-1.29,2.73l7.28,6.29s-4.93-.61-4.86,3l4.4,2,7.17,1.22a5.29,5.29,0,0,0,2.59-.21l1.75-.61a38.2,38.2,0,0,0,6.61-1.31c2.35-.83,4.81-3.57,4.81-3.57l9.21-10.15s1.29-5.23-1.67-6.67-2-.07-2.95-1.44-4.81-3-5,1.06c-.15,3.18,1.22,3.94,1.44,3.94S367.7,198.79,366.26,202.43Z" style="fill:#ae7461"></path><path d="M353.56,208a15.73,15.73,0,0,1-3.85-.52h0l0,0-.11-.07c-1.85-1.19-3.26-2.41-3.05-2.6,0,0,.35.24,1,.63L349.8,207l.1.07-.09,0A14.8,14.8,0,0,1,353.56,208Z" style="fill:#6f4439"></path><path d="M365.45,207.37s-.3.08-.78.26a4.36,4.36,0,0,0-1.7,1.23v0c-.42.7-.88,1.45-1.37,2.23l0,.08-.1,0a14.94,14.94,0,0,0-1.45.57,10.55,10.55,0,0,0-2.36,1.42,2.25,2.25,0,0,0-1,1.75,2.3,2.3,0,0,0,.62,1.28c.24.27.39.4.37.43s-.21-.05-.51-.29a2.25,2.25,0,0,1-.85-1.39,1.8,1.8,0,0,1,.25-1.15,4.18,4.18,0,0,1,.85-1,9.62,9.62,0,0,1,2.45-1.53,13.73,13.73,0,0,1,1.53-.59l-.14.11,1.43-2.18,0,0h0a4.21,4.21,0,0,1,2-1.18C365.14,207.27,365.45,207.33,365.45,207.37Z" style="fill:#6f4439"></path><path d="M370.05,198.48c.05-.06.27,0,.62.06a8.53,8.53,0,0,0,1.4.11,7.24,7.24,0,0,1,2.06.07c0,.14-.88.46-2.07.45a4,4,0,0,1-1.5-.27C370.19,198.73,370,198.54,370.05,198.48Z" style="fill:#6f4439"></path><path d="M378.24,201.59s4.74-1.29,9.63-2.79l10.89-3.91-3.38-19.57,22.86-8s3.94,28.58,3,35.86c-.94,7.12-4.91,8.81-10.47,10.62s-46.24-.21-46.81.67,5.55-8.05,5.55-8.05Z" style="fill:#ae7461"></path><path d="M370.78,209.61a7.66,7.66,0,0,1-2.23,3,7.57,7.57,0,0,1-3.14,2c-.08-.13,1.31-1,2.78-2.39S370.66,209.52,370.78,209.61Z" style="fill:#6f4439"></path><path d="M408.84,198.72a30.63,30.63,0,0,0-4.73-2.72,29,29,0,0,0-5.31-1.31,12,12,0,0,1,10,4Z" style="fill:#6f4439"></path><path d="M358.39,209.86c0,.07-.95.46-2.47,1.22l-1.23.62-.7.36-.18.09-.11,0a.34.34,0,0,1-.18,0l-.42,0-3.64-.38-1.89-.21a13.8,13.8,0,0,0-1.74-.15,5.18,5.18,0,0,0-2.77.59,2.6,2.6,0,0,0-1.17,1.44c-.14.44-.15.7-.19.71s-.1-.27,0-.76a2.66,2.66,0,0,1,1.18-1.7,5.31,5.31,0,0,1,3-.76,13.42,13.42,0,0,1,1.78.12l1.87.2,3.63.42.41.05s.18-.07.28-.11l.7-.32,1.27-.58A9.57,9.57,0,0,1,358.39,209.86Z" style="fill:#6f4439"></path><path d="M398.71,123c.65.22,8.29,2.47,12.45,13.42s9.66,39.54,9.66,39.54l-26.08,5.27-3.91-35.44Z" style="fill:#4193F0"></path><path d="M389.23,148.67a6.18,6.18,0,0,1,.25,1.27c.13.93.3,2.09.5,3.48.41,2.94,1,7,1.79,11.45s1.58,8.48,2.19,11.38c.28,1.38.51,2.53.7,3.45a5.13,5.13,0,0,1,.2,1.27,6.71,6.71,0,0,1-.39-1.23c-.23-.8-.53-2-.87-3.41-.7-2.89-1.56-6.9-2.34-11.37s-1.33-8.54-1.65-11.49c-.16-1.48-.28-2.68-.34-3.51A6.64,6.64,0,0,1,389.23,148.67Z" style="fill:#263238"></path><path d="M398,126a20.35,20.35,0,0,0-9.3,12.53,7.14,7.14,0,0,1,.41-2.35,16.4,16.4,0,0,1,2.57-5.15,16.65,16.65,0,0,1,4.19-4A6.6,6.6,0,0,1,398,126Z" style="fill:#263238"></path></g></svg>
